<?xml version="1.0" encoding="UTF-8"?>
<svg version="1.1" xmlns="http://www.w3.org/2000/svg" width="66" height="90">
<path d="M0 0 C21.78 0 43.56 0 66 0 C66 29.7 66 59.4 66 90 C44.22 90 22.44 90 0 90 C0 60.3 0 30.6 0 0 Z " fill="#F1202A" transform="translate(0,0)"/>
<path d="M0 0 C15.51 0 31.02 0 47 0 C47 3.3 47 6.6 47 10 C40.73 10 34.46 10 28 10 C28.00785522 13.08202759 28.00785522 13.08202759 28.01586914 16.22631836 C28.03240672 22.99970199 28.0434719 29.7730865 28.05181217 36.54648495 C28.05704046 40.65494285 28.06413713 44.76338014 28.07543945 48.87182617 C28.08627025 52.83346828 28.09227724 56.79509052 28.09487724 60.75674629 C28.09673114 62.27148311 28.1003511 63.78621879 28.10573006 65.30094719 C28.11294307 67.41541813 28.11399083 69.52980594 28.11352539 71.64428711 C28.115746 72.85007919 28.11796661 74.05587128 28.12025452 75.29820251 C28 78 28 78 27 79 C23.7 79 20.4 79 17 79 C17 56.56 17 34.12 17 11 C10.73 11 4.46 11 -2 11 C-1 3 -1 3 0 0 Z " fill="#FDF1F2" transform="translate(9,6)"/>
</svg>
